HIERARCHY
ROOT Hips
{
    OFFSET 0.000000 0.000000 0.000000
    CHANNELS 6 Xposition Yposition Zposition Zrotation Xrotation Yrotation
    JOINT Spine
    {
        OFFSET -0.000000 14.517291 0.000000
        CHANNELS 3 Zrotation Xrotation Yrotation
        JOINT Spine1
        {
            OFFSET -0.000000 37.558300 0.000000
            CHANNELS 3 Zrotation Xrotation Yrotation
            JOINT Neck
            {
                OFFSET -0.000000 37.404057 3.400369
                CHANNELS 3 Zrotation Xrotation Yrotation
                JOINT Head
                {
                    OFFSET -0.000000 24.785618 -3.540803
                    CHANNELS 3 Zrotation Xrotation Yrotation
                    End Site
                    {
                        OFFSET -0.000000 35.408028 0.000000
                    }
                }
            }
            JOINT LeftShoulder
            {
                OFFSET 6.992933 33.973492 -0.192664
                CHANNELS 3 Zrotation Xrotation Yrotation
                JOINT LeftArm
                {
                    OFFSET 21.527611 0.000000 0.000000
                    CHANNELS 3 Zrotation Xrotation Yrotation
                    JOINT LeftForeArm
                    {
                        OFFSET 56.353916 0.000000 0.000000
                        CHANNELS 3 Zrotation Xrotation Yrotation
                        JOINT LeftHand
                        {
                            OFFSET 47.774071 0.000000 0.000000
                            CHANNELS 3 Zrotation Xrotation Yrotation
                            End Site
                            {
                                OFFSET 26.556021 0.000000 0.000000
                            }
                        }
                    }
                }
            }
            JOINT RightShoulder
            {
                OFFSET -7.065357 33.973492 -0.192664
                CHANNELS 3 Zrotation Xrotation Yrotation
                JOINT RightArm
                {
                    OFFSET -21.527611 0.000000 0.000000
                    CHANNELS 3 Zrotation Xrotation Yrotation
                    JOINT RightForeArm
                    {
                        OFFSET -56.353916 0.000000 0.000000
                        CHANNELS 3 Zrotation Xrotation Yrotation
                        JOINT RightHand
                        {
                            OFFSET -47.774071 0.000000 0.000000
                            CHANNELS 3 Zrotation Xrotation Yrotation
                            End Site
                            {
                                OFFSET -26.556021 0.000000 0.000000
                            }
                        }
                    }
                }
            }
        }
    }
    JOINT LeftUpLeg
    {
        OFFSET 17.704014 0.000000 0.000000
        CHANNELS 3 Zrotation Xrotation Yrotation
        JOINT LeftLeg
        {
            OFFSET -0.000000 -81.181816 0.000000
            CHANNELS 3 Zrotation Xrotation Yrotation
            JOINT LeftFoot
            {
                OFFSET -0.000000 -62.821102 0.000000
                CHANNELS 3 Zrotation Xrotation Yrotation
                JOINT LeftToeBase
                {
                    OFFSET -0.000000 -11.507608 26.556021
                    CHANNELS 3 Zrotation Xrotation Yrotation
                    End Site
                    {
                        OFFSET -0.000000 0.000000 7.081605
                    }
                }
            }
        }
    }
    JOINT RightUpLeg
    {
        OFFSET -17.704014 0.000000 0.000000
        CHANNELS 3 Zrotation Xrotation Yrotation
        JOINT RightLeg
        {
            OFFSET -0.000000 -81.181816 0.000000
            CHANNELS 3 Zrotation Xrotation Yrotation
            JOINT RightFoot
            {
                OFFSET -0.000000 -62.821102 0.000000
                CHANNELS 3 Zrotation Xrotation Yrotation
                JOINT RightToeBase
                {
                    OFFSET -0.000000 -11.507608 26.556021
                    CHANNELS 3 Zrotation Xrotation Yrotation
                    End Site
                    {
                        OFFSET -0.000000 0.000000 7.081605
                    }
                }
            }
        }
    }
}
MOTION
Frames:    8
Frame Time:    0.008333
34.534321    159.622787    -102.708885    -0.423903    -1.699847    26.788637    -0.896090    -4.070685    -1.646321    -2.139895    5.602481    -0.432366    2.417278    -2.190489    -4.559302    9.983872    0.904319    -3.805020    12.144423    2.414500    -12.404617    -34.637184    17.235777    -8.275004    -11.312077    -17.384106    -115.129051    -1.906071    -33.366764    -13.948113    -12.676129    2.636688    -10.352714    22.839838    20.404636    13.270905    17.602766    16.026964    4.343278    1.972009    15.765886    23.008083    8.721420    2.469340    -0.975155    -10.175453    21.856255    -17.638945    6.728149    -21.799084    44.570465    0.000000    0.000000    0.000000    -15.413849    -25.088200    -9.440124    11.436625    27.019032    -14.036945    3.832410    12.651665    -12.153862    0.000000    0.000000    0.000000    
34.529305    159.610992    -102.726074    -0.405020    -1.727287    26.858517    -0.899471    -4.068357    -1.663452    -2.233325    5.596468    -0.433490    2.544756    -2.104495    -4.555882    9.946761    0.863689    -3.822550    11.964429    2.451196    -12.504086    -34.547287    16.777117    -10.207734    -11.022469    -18.762423    -114.621780    -1.919918    -34.038284    -13.755587    -12.503211    2.790269    -10.271857    22.659454    20.372936    13.290869    17.558865    15.947649    4.421046    2.027625    15.687228    22.996370    8.728957    2.470765    -1.007081    -10.180521    21.878479    -17.654345    6.731650    -21.815489    44.545700    0.000000    0.000000    0.000000    -15.460796    -25.055542    -9.497782    11.460625    27.056459    -14.063405    3.833973    12.633749    -12.139099    0.000000    0.000000    0.000000    
34.520100    159.605179    -102.740837    -0.394444    -1.748504    26.937742    -0.909155    -4.082462    -1.692733    -2.323240    5.611466    -0.438351    2.676749    -2.056485    -4.548993    9.915312    0.848840    -3.839382    11.852548    2.637153    -12.482902    -34.399418    16.329472    -12.401479    -10.516290    -20.291988    -114.010216    -2.131688    -34.526802    -13.619815    -12.435408    2.794483    -10.205079    22.589350    20.377131    13.297789    17.601156    15.896894    4.402407    2.060145    15.643765    22.987019    8.745026    2.461859    -1.050276    -10.198136    21.895241    -17.659822    6.743613    -21.817829    44.520935    0.000000    0.000000    0.000000    -15.502775    -25.023304    -9.571944    11.470043    27.083908    -14.081494    3.859083    12.636974    -12.133285    0.000000    0.000000    0.000000    
34.509678    159.599121    -102.751099    -0.385660    -1.780493    27.017467    -0.924887    -4.078721    -1.721380    -2.389920    5.621386    -0.444178    2.780243    -2.016510    -4.554981    9.903605    0.837882    -3.862617    11.686486    2.584358    -12.700126    -34.348083    15.861571    -14.175903    -10.037241    -21.629578    -113.462090    -2.202399    -34.938965    -13.624936    -12.371606    2.778687    -10.150743    22.539991    20.450352    13.281661    17.534845    15.813658    4.429409    2.212242    15.587969    22.947132    8.767231    2.463162    -1.092774    -10.200956    21.914875    -17.702900    6.758869    -21.815449    44.513706    0.000000    0.000000    0.000000    -15.536143    -24.982857    -9.657772    11.475015    27.114761    -14.126094    3.859194    12.640616    -12.084644    0.000000    0.000000    0.000000    
34.495968    159.596542    -102.761902    -0.383317    -1.814201    27.105511    -0.938263    -4.068599    -1.755684    -2.453969    5.617749    -0.452412    2.909101    -1.953004    -4.556065    9.854061    0.809180    -3.887939    11.619514    2.859542    -12.620135    -34.140659    15.633383    -16.544708    -9.178051    -23.528395    -112.706306    -2.594198    -35.317039    -13.791665    -12.304238    2.764528    -10.098246    22.491425    20.507118    13.258528    17.468843    15.756765    4.458713    2.281175    15.542627    22.945625    8.798932    2.455710    -1.155179    -10.211350    21.941536    -17.728056    6.766103    -21.820900    44.508556    0.000000    0.000000    0.000000    -15.565875    -24.937706    -9.747144    11.479944    27.144159    -14.120225    3.875923    12.637809    -12.081171    0.000000    0.000000    0.000000    
34.479622    159.595383    -102.778091    -0.388864    -1.836744    27.191484    -0.943102    -4.065207    -1.784711    -2.542025    5.603991    -0.457955    3.069439    -1.884392    -4.541611    9.796567    0.771094    -3.902298    11.556901    2.920319    -12.806045    -34.049103    15.190072    -18.476065    -8.503705    -24.953409    -112.042587    -2.828298    -35.591000    -13.936546    -12.212141    2.750732    -10.041516    22.424446    20.460463    13.253453    17.518270    15.769749    4.391371    2.150295    15.539771    23.031496    8.831335    2.432608    -1.203207    -10.223322    21.965975    -17.747042    6.776781    -21.820972    44.485901    0.000000    0.000000    0.000000    -15.594732    -24.901615    -9.815874    11.499238    27.149429    -14.151081    3.886489    12.644899    -12.073879    0.000000    0.000000    0.000000    
34.463673    159.595245    -102.789055    -0.387457    -1.872365    27.286716    -0.951643    -4.048024    -1.823640    -2.615900    5.596685    -0.467342    3.180253    -1.842655    -4.537107    9.781497    0.763995    -3.916278    11.509302    3.010217    -12.965550    -33.908001    14.805108    -20.444904    -7.756012    -26.412962    -111.344963    -3.189027    -35.826900    -14.139376    -12.145350    2.737146    -9.992586    22.382643    20.496729    13.229083    17.477068    15.726266    4.427613    2.186324    15.499464    23.030270    8.864536    2.427841    -1.269740    -10.235388    21.984644    -17.768860    6.788413    -21.818424    44.481674    0.000000    0.000000    0.000000    -15.624661    -24.847673    -9.895530    11.519677    27.160179    -14.187836    3.886765    12.657751    -12.047224    0.000000    0.000000    0.000000    
34.450294    159.597244    -102.799080    -0.381604    -1.905438    27.379238    -0.964765    -4.024089    -1.852373    -2.691450    5.578590    -0.473510    3.287911    -1.786690    -4.530429    9.772180    0.735650    -3.924382    11.485602    3.097756    -13.123604    -33.769260    14.427264    -22.437197    -7.037958    -27.822544    -110.613281    -3.679459    -36.072430    -14.541456    -12.073975    2.713571    -9.943822    22.343122    20.482334    13.197014    17.478388    15.729871    4.409332    2.211249    15.510567    23.026531    8.890907    2.427061    -1.322856    -10.243115    21.998501    -17.791824    6.793087    -21.818836    44.460480    0.000000    0.000000    0.000000    -15.652602    -24.795897    -9.984683    11.518254    27.179197    -14.150440    3.924634    12.653706    -12.089038    0.000000    0.000000    0.000000    
